# xmcd
#
# Track frame offsets: 
#        150
#        16832
#        33629
#        51817
#        69030
#        87563
#        106150
#        123158
#        139944
#        151777
#
# Disc length: 2270 seconds
#
# Revision: 4
# Processed by: cddbd v1.5.2PL0 Copyright (c) Steve Scherf et al.
# Submitted via: ExactAudioCopy v1.3
#
DISCID=7608dc0a
DTITLE=鄭秀文 - 信 Faith
DYEAR=2009
DGENRE=Pop
TTITLE0=信者得愛（Featuring MC 仁）
TTITLE1=鄭秀文＋24HERBS - 罪與罰
TTITLE2=上帝早已預備
TTITLE3=不要驚動愛情
TTITLE4=結果
TTITLE5=你愛我
TTITLE6=有一種快樂
TTITLE7=鄭秀文＋24HERBS - Forgiveness
TTITLE8=阿門（國）
TTITLE9=你愛我（國）
EXTD=
EXTT0=
EXTT1=
EXTT2=
EXTT3=
EXTT4=
EXTT5=
EXTT6=
EXTT7=
EXTT8=
EXTT9=
PLAYORDER=
